<?xml version="1.0" standalone="no"?>
<!DOCTYPE svg PUBLIC "-//W3C//DTD SVG 20010904//EN"
 "http://www.w3.org/TR/2001/REC-SVG-20010904/DTD/svg10.dtd">
<svg version="1.0" xmlns="http://www.w3.org/2000/svg"
 width="900.000000pt" height="900.000000pt" viewBox="0 0 900.000000 900.000000"
 preserveAspectRatio="xMidYMid meet">
<metadata>
Created by potrace 1.11, written by Peter Selinger 2001-2013
</metadata>
<g transform="translate(0.000000,900.000000) scale(0.100000,-0.100000)"
fill="#000000" stroke="none">
<path d="M3047 8523 c-4 -3 -212 -6 -463 -6 -252 0 -474 -4 -493 -9 -78 -20
-201 -103 -201 -136 0 -7 -3 -12 -8 -12 -13 0 -48 -77 -59 -130 -3 -14 -6
-745 -7 -1625 l-1 -1600 -42 0 c-24 0 -43 -4 -43 -9 0 -5 -5 -5 -12 1 -15 10
-188 10 -206 -1 -6 -4 -12 -3 -12 2 0 8 -23 9 -55 2 -5 -1 -12 -1 -15 0 -16 6
-90 4 -90 -4 0 -5 -6 -4 -12 1 -7 5 -31 8 -53 6 -48 -4 -44 -4 -125 0 -36 2
-73 -1 -82 -5 -10 -5 -18 -5 -18 -1 0 4 -50 8 -112 7 l-112 0 -1 -290 0 -289
-365 -1 c-201 0 -375 -4 -388 -8 -27 -9 -51 -52 -47 -86 2 -14 27 -74 55 -135
29 -60 65 -137 80 -170 46 -99 95 -204 150 -320 81 -172 98 -209 102 -230 6
-26 -14 -77 -101 -258 -39 -81 -71 -150 -71 -152 0 -2 -30 -66 -66 -142 -36
-76 -76 -160 -89 -188 -13 -27 -32 -69 -43 -92 -32 -67 -16 -122 40 -141 13
-4 408 -8 879 -7 l857 1 0 -211 c0 -115 1 -212 2 -215 1 -3 3 -19 5 -36 6 -40
49 -136 69 -153 9 -7 16 -19 17 -25 0 -6 15 -23 33 -38 38 -31 243 -158 256
-158 4 0 10 -3 12 -8 4 -9 126 -82 138 -82 5 0 10 -3 12 -7 4 -11 175 -113
188 -113 6 0 13 -7 16 -15 4 -8 11 -15 16 -15 13 0 182 -102 186 -112 2 -5 9
-8 15 -8 6 0 38 -17 71 -38 115 -73 217 -132 225 -132 5 0 11 -4 13 -8 3 -7
56 -41 238 -148 41 -24 82 -48 90 -53 204 -126 706 -427 716 -429 8 -2 14 -8
14 -13 0 -5 7 -9 15 -9 8 0 15 -4 15 -10 0 -5 5 -10 10 -10 6 0 28 -11 50 -25
39 -25 40 -25 285 -25 245 0 246 0 285 25 22 14 42 25 45 25 4 0 32 17 63 39
31 21 59 38 62 38 3 0 17 7 33 16 62 39 72 44 78 43 3 -1 13 6 22 14 27 25 42
35 57 38 8 2 22 9 30 15 8 7 26 18 39 25 57 32 95 55 241 142 85 51 171 102
190 113 46 26 466 275 505 299 17 10 38 21 48 24 9 4 17 10 17 15 0 5 5 9 11
9 9 0 247 137 259 150 3 3 31 19 62 35 32 17 58 33 58 38 0 4 5 7 10 7 6 0 54
26 108 58 53 32 142 85 197 117 123 72 197 144 235 228 39 87 43 123 46 362 1
116 2 212 3 215 0 3 387 5 859 5 695 -1 862 1 885 12 25 13 27 17 27 81 0 38
-5 73 -11 79 -6 6 -12 17 -13 24 -4 22 -40 93 -51 101 -5 4 -7 8 -2 8 4 0 -4
21 -17 48 -27 52 -89 184 -91 192 -1 3 -20 46 -44 95 -83 173 -101 213 -101
224 0 6 -5 11 -12 11 -6 0 -8 3 -5 6 3 4 0 16 -8 28 -18 25 -19 65 -3 103 6
15 12 30 13 33 0 3 21 46 45 95 24 50 44 92 45 95 2 8 81 175 191 405 49 104
58 130 62 192 4 67 3 72 -19 84 -18 9 -115 13 -394 13 l-370 1 0 282 c0 155
-3 285 -7 289 -4 4 -28 6 -53 5 -25 -1 -52 -1 -60 -1 -14 0 -117 0 -147 0 -7
0 -42 1 -78 3 -36 2 -73 -1 -82 -5 -10 -5 -18 -5 -18 -1 0 10 -133 8 -149 -1
-6 -4 -11 -4 -11 1 0 4 -29 8 -65 8 -36 0 -65 -4 -65 -8 0 -4 -8 -4 -17 1 -21
9 -135 8 -151 -2 -6 -3 -13 -2 -16 3 -3 4 -19 7 -36 5 -19 -2 -30 1 -31 9 -1
6 -3 734 -4 1617 -2 1120 -6 1615 -13 1638 -14 44 -70 131 -102 159 -14 12
-54 37 -90 55 l-65 33 -975 2 c-536 1 -984 3 -995 3 -11 0 -446 0 -967 -1
-520 0 -951 1 -956 5 -5 3 -12 3 -15 -1z"/>
</g>
</svg>
